<svg xmlns="http://www.w3.org/2000/svg" width="1488" height="1681"><path fill="#4c4c4c" d="M1487.5 1176.11V392.04L808.5 0v301.03l266 154.01c10.5 7 10.5 21.01 0 24.51l-315 182.01c-10.5 7-21 3.5-28 0l-315-182.01c-10.5-3.5-10.5-21.01 0-24.51l266-154.01V0L0 392.04v784.07-3.5 3.5l259-150.51V717.57c0-10.5 14-17.5 21-14l315 182.01c10.5 7 14 14.01 14 24.51v364.03c0 10.5-14 17.5-21 14l-266-154.01-259 150.51 679 395.54 679-392.04-259-150.51-266 154.01c-10.5 7-21 0-21-14V913.59c0-10.5 7-21.01 14-24.51l315-182.01c10.5-7 21 0 21 14v308.03z"/><path d="m742 1680.16 679-392.04-259-150.51-266 154.01c-10.5 7-21 0-21-14V913.59c0-10.5 7-21.01 14-24.51l315-182.01c10.5-7 21 0 21 14v308.03l259 150.51V392.04L742 822.58z"/><path fill="gray" d="M808.5 0v301.03l266 154.01c10.5 7 10.5 21.01 0 24.51l-315 182.01c-10.5 7-21 3.5-28 0l-315-182.01c-10.5-3.5-10.5-21.01 0-24.51l266-154.01V0L0 392.04l742 430.54 742-430.54z"/><path fill="#4c4c4c" d="m591.5 1291.62-266-154.01-259 150.51 679 392.04V822.58L0 392.04v784.07-3.5 3.5l259-150.51V717.57c0-10.5 14-17.5 21-14l315 182.01c10.5 7 14 14.01 14 24.51v364.03c3.5 14-7 24.5-17.5 17.5"/></svg>